<svg width="23" height="22" viewBox="0 0 23 22" fill="none" xmlns="http://www.w3.org/2000/svg">
<path fill-rule="evenodd" clip-rule="evenodd" d="M9.20005 1.05153C9.20005 0.773078 9.32119 0.506028 9.53683 0.309131C9.75246 0.112233 10.0449 0.00161743 10.3499 0.00161743H21.8481C22.1531 0.00161743 22.4455 0.112233 22.6612 0.309131C22.8768 0.506028 22.9979 0.773078 22.9979 1.05153V11.5507C22.9979 11.8292 22.8768 12.0962 22.6612 12.2931C22.4455 12.49 22.1531 12.6006 21.8481 12.6006C21.5432 12.6006 21.2507 12.49 21.0351 12.2931C20.8194 12.0962 20.6983 11.8292 20.6983 11.5507V2.10145H10.3499C10.0449 2.10145 9.75246 1.99083 9.53683 1.79394C9.32119 1.59704 9.20005 1.32999 9.20005 1.05153V1.05153Z" fill="white"/>
<path fill-rule="evenodd" clip-rule="evenodd" d="M22.6622 0.308452C22.7693 0.40598 22.8542 0.52184 22.9122 0.649394C22.9702 0.776949 23 0.913693 23 1.05179C23 1.18989 22.9702 1.32664 22.9122 1.45419C22.8542 1.58175 22.7693 1.69761 22.6622 1.79513L1.96535 20.6936C1.74945 20.8908 1.45661 21.0015 1.15128 21.0015C0.845939 21.0015 0.553107 20.8908 0.337201 20.6936C0.121295 20.4965 7.194e-09 20.2291 0 19.9503C-7.194e-09 19.6715 0.121295 19.4041 0.337201 19.2069L21.034 0.308452C21.1409 0.210677 21.2677 0.133104 21.4074 0.0801743C21.5471 0.027245 21.6969 0 21.8481 0C21.9994 0 22.1491 0.027245 22.2888 0.0801743C22.4285 0.133104 22.5554 0.210677 22.6622 0.308452V0.308452Z" fill="white"/>
</svg>
