<svg width="25" height="25" viewBox="0 0 25 25" fill="none" xmlns="http://www.w3.org/2000/svg">
<circle cx="12.5" cy="12.5" r="12.5" fill="#FF6071"/>
<path d="M12.4985 9.58467C10.8852 9.58467 9.5832 10.8867 9.5832 12.5C9.5832 14.1133 10.8852 15.4153 12.4985 15.4153C14.1117 15.4153 15.4137 14.1133 15.4137 12.5C15.4137 10.8867 14.1117 9.58467 12.4985 9.58467ZM12.4985 14.3947C11.4552 14.3947 10.6038 13.5433 10.6038 12.5C10.6038 11.4567 11.4552 10.6052 12.4985 10.6052C13.5418 10.6052 14.3932 11.4567 14.3932 12.5C14.3932 13.5433 13.5418 14.3947 12.4985 14.3947ZM15.5331 8.78584C15.1565 8.78584 14.8523 9.09002 14.8523 9.46669C14.8523 9.84337 15.1565 10.1476 15.5331 10.1476C15.9098 10.1476 16.214 9.84479 16.214 9.46669C16.2141 9.37725 16.1966 9.28867 16.1624 9.20601C16.1282 9.12335 16.0781 9.04825 16.0148 8.98501C15.9516 8.92176 15.8765 8.87161 15.7938 8.83744C15.7112 8.80326 15.6226 8.78572 15.5331 8.78584V8.78584ZM18.1812 12.5C18.1812 11.7154 18.1883 10.9379 18.1442 10.1547C18.1002 9.24495 17.8926 8.43759 17.2274 7.77237C16.5608 7.10572 15.7549 6.89962 14.8452 6.85556C14.0606 6.81149 13.2831 6.8186 12.4999 6.8186C11.7153 6.8186 10.9378 6.81149 10.1546 6.85556C9.24491 6.89962 8.43756 7.10715 7.77235 7.77237C7.10572 8.43901 6.89962 9.24495 6.85556 10.1547C6.81149 10.9393 6.8186 11.7168 6.8186 12.5C6.8186 13.2832 6.81149 14.0621 6.85556 14.8453C6.89962 15.755 7.10714 16.5624 7.77235 17.2276C8.43898 17.8943 9.24491 18.1004 10.1546 18.1444C10.9392 18.1885 11.7167 18.1814 12.4999 18.1814C13.2845 18.1814 14.062 18.1885 14.8452 18.1444C15.7549 18.1004 16.5622 17.8928 17.2274 17.2276C17.8941 16.561 18.1002 15.755 18.1442 14.8453C18.1897 14.0621 18.1812 13.2846 18.1812 12.5V12.5ZM16.9304 15.8517C16.8266 16.1104 16.7015 16.3037 16.5011 16.5027C16.3007 16.7031 16.1088 16.8282 15.8501 16.932C15.1025 17.229 13.3271 17.1622 12.4985 17.1622C11.6698 17.1622 9.89306 17.229 9.14541 16.9334C8.88672 16.8296 8.69341 16.7045 8.49442 16.5041C8.294 16.3037 8.16892 16.1118 8.06516 15.8531C7.76951 15.104 7.83631 13.3287 7.83631 12.5C7.83631 11.6713 7.76951 9.89454 8.06516 9.14688C8.16892 8.88818 8.294 8.69487 8.49442 8.49587C8.69483 8.29687 8.88672 8.17036 9.14541 8.0666C9.89306 7.77095 11.6698 7.83775 12.4985 7.83775C13.3271 7.83775 15.1039 7.77095 15.8515 8.0666C16.1102 8.17036 16.3035 8.29545 16.5025 8.49587C16.7029 8.69629 16.828 8.88818 16.9318 9.14688C17.2274 9.89454 17.1606 11.6713 17.1606 12.5C17.1606 13.3287 17.2274 15.104 16.9304 15.8517Z" fill="white"/>
</svg>
