<svg width="25" height="25" viewBox="0 0 25 25" fill="none" xmlns="http://www.w3.org/2000/svg">
<circle cx="12.5" cy="12.5" r="12.5" fill="#FF6071"/>
<path d="M16.1157 15.1989H11.0443C10.8565 15.1989 10.7626 15.1278 10.7626 14.9148V12.7841H16.1157C17.1488 12.7841 18.0879 12.1449 18.0879 11.2926C18.0879 10.4403 17.1488 9.80113 16.1157 9.80113H10.7626V8.30965C10.7626 7.45738 9.82344 6.81818 8.69646 6.81818C7.66341 6.81818 6.81818 7.45738 6.81818 8.30965V14.8437C6.81818 16.7614 8.22689 18.1108 11.1382 18.1818H16.2096C17.2427 18.1818 18.1818 17.4716 18.1818 16.6903C18.0879 15.8381 17.1488 15.1989 16.1157 15.1989V15.1989Z" fill="white"/>
</svg>
