<svg width="25" height="25" viewBox="0 0 25 25" fill="none" xmlns="http://www.w3.org/2000/svg">
<circle cx="12.5" cy="12.5" r="12.5" fill="#FF6071"/>
<path d="M11.3584 7.60523C7.63048 8.55174 6.17121 10.974 6.71303 13.108C6.97521 14.1406 7.91517 15.001 9.15641 15.2721C9.53027 15.3237 9.41059 15.2076 9.45502 14.317C9.43754 14.2481 9.42007 14.1793 9.31786 14.132C7.40831 13.0047 7.92761 9.722 11.486 8.81851C16.6542 7.50631 17.1057 13.5469 13.8862 14.3643C13.2258 14.6053 12.5279 14.3428 12.3881 13.7921L12.3182 13.5167C12.4648 12.6735 12.5442 11.9206 12.4367 11.1418C12.0696 9.69621 9.49561 10.5696 9.98499 12.4971C10.0724 12.8413 10.2445 13.1639 10.4839 13.3963C10.4839 13.3963 10.3532 16.4338 10.3061 16.9587C10.3464 17.8277 10.6409 18.6323 11.0026 19.3465C10.9353 19.4368 11.0201 19.4153 11.0201 19.4153L11.1048 19.3938C11.5231 18.5548 11.8566 17.7374 12.0033 16.8941C12.0006 16.5284 12.1096 15.1818 12.1096 15.1818C12.6556 15.5561 13.488 15.6378 14.2505 15.4442C16.877 14.7774 18.269 12.4455 17.6922 10.1738C17.1155 7.90213 14.3237 6.85233 11.3584 7.60523Z" fill="white"/>
</svg>
