<svg width="20" height="20" viewBox="0 0 20 20" fill="none" xmlns="http://www.w3.org/2000/svg">
<path d="M10.3077 0C3.53846 0 0 3.5 0 7.375C0 9.25 1.23077 11.125 3.23077 12.125C3.84615 12.375 3.69231 12.125 4.15385 10.625C4.15385 10.5 4.15385 10.375 4 10.25C1.23077 7.5 3.53846 2.125 10 2.125C19.3846 2.125 17.5385 12.625 11.6923 12.625C10.4615 12.75 9.38462 12 9.38462 11V10.5C10 9.125 10.4615 7.875 10.6154 6.5C10.6154 3.875 5.84615 4.25 5.84615 7.75C5.84615 8.375 6 9 6.30769 9.5C6.30769 9.5 4.76923 14.625 4.46154 15.5C4.15385 17 4.30769 18.5 4.61538 19.875C4.46154 20 4.61538 20 4.61538 20H4.76923C5.84615 18.75 6.76923 17.5 7.38462 16.125C7.53846 15.5 8.30769 13.25 8.30769 13.25C9.07692 14.125 10.4615 14.625 11.8462 14.625C16.6154 14.625 20 11.25 20 7.125C20 3 15.6923 0 10.3077 0Z" fill="#E90DB8"/>
</svg>
